<svg width="322" height="116" viewBox="0 0 322 116" fill="none" xmlns="http://www.w3.org/2000/svg">
<path opacity="0.95" d="M176.588 20.2811C176.255 19.6609 175.862 19.086 175.393 18.5868C172.716 15.7276 168.888 13.9425 164.622 13.9425C162.156 13.9425 159.842 14.5476 157.799 15.6066C162.731 18.2993 165.454 23.4882 165.303 28.7981C165.242 31.0068 164.683 33.2457 163.563 35.3334C162.156 37.9657 160.069 40.0079 157.633 41.3392C157.633 41.3392 157.633 41.3392 157.648 41.3392C155.999 42.262 154.154 42.852 152.187 43.0638C152.172 43.0638 152.157 43.0638 152.157 43.0638C151.93 43.094 151.688 43.1092 151.446 43.1243C151.204 43.1394 150.962 43.1394 150.72 43.1545C150.704 43.1545 150.689 43.1545 150.659 43.1545C150.599 43.1545 150.538 43.1545 150.477 43.1545C150.296 43.1545 150.114 43.1545 149.933 43.1394C149.918 43.1394 149.918 43.1394 149.903 43.1394C147.845 43.0335 145.773 42.4889 143.836 41.4602C140.796 39.8415 138.572 37.2698 137.331 34.3047C137.271 34.1686 137.225 34.0475 137.165 33.9114C137.15 33.8811 137.15 33.866 137.135 33.8357C136.484 32.1717 136.121 30.3563 136.121 28.4502C136.121 28.2989 136.121 28.1476 136.136 27.9964C136.045 28.7981 136 29.615 136 30.4471C136 42.3679 145.667 52.0195 157.572 52.0195C169.372 52.0195 178.963 42.5343 179.145 30.7799C179.145 30.674 179.16 30.553 179.16 30.4471C179.145 26.771 178.222 23.3067 176.588 20.2811Z" fill="white"/>
<path opacity="0.8" d="M157.813 15.3799C156.875 14.8504 155.862 14.4268 154.818 14.1091C153.502 13.7158 152.11 13.4889 150.658 13.4889C145.454 13.4889 140.87 16.2422 138.268 20.3872C137.95 21.0075 137.663 21.6428 137.406 22.2933C136.801 23.791 136.377 25.3794 136.12 27.0133C135.893 29.3127 136.211 31.6273 137.012 33.7452C137.027 33.7755 137.028 33.7906 137.043 33.8208C137.088 33.957 137.148 34.0931 137.209 34.2142C139.372 39.2366 144.198 42.822 149.886 43.1245C149.901 43.1245 149.901 43.1245 149.916 43.1245C150.098 43.1396 150.28 43.1396 150.476 43.1396C150.552 43.1396 150.643 43.1396 150.718 43.1396C150.96 43.1396 151.202 43.1245 151.46 43.1094C151.702 43.0943 151.929 43.0791 152.171 43.0489C152.186 43.0489 152.201 43.0489 152.201 43.0489C154.122 42.8371 155.998 42.2471 157.707 41.3092C154.561 40.6284 151.747 37.86 150.748 34.0326C150.567 33.3519 150.461 32.6711 150.401 31.9904C150.295 30.644 150.446 29.3278 150.809 28.1327C151.248 26.6804 152.004 25.4097 153.018 24.4415C153.865 23.6246 154.894 23.0195 156.074 22.7169C159.598 21.779 163.32 23.791 165.286 27.3763C164.969 22.2328 162.034 17.7852 157.813 15.3799Z" fill="white"/>
<path opacity="0.95" d="M173.47 1.99153C166.693 -3.68144 155.771 3.91278 157.208 10.4329C164.046 15.2133 174.03 7.16529 173.47 1.99153Z" fill="white"/>
<path opacity="0.8" d="M155.47 10.085C154.215 3.03539 143.474 2.03695 140.963 6.84763C142.733 13.3829 153.125 13.5947 155.47 10.085Z" fill="white"/>
<path d="M37.0874 97L33.9824 92.515H33.7984H30.5554V97H26.8294V80.9H33.7984C35.2244 80.9 36.4587 81.1377 37.5014 81.613C38.5594 82.0883 39.3721 82.763 39.9394 83.637C40.5067 84.511 40.7904 85.546 40.7904 86.742C40.7904 87.938 40.4991 88.973 39.9164 89.847C39.3491 90.7057 38.5364 91.365 37.4784 91.825L41.0894 97H37.0874ZM37.0184 86.742C37.0184 85.8373 36.7271 85.1473 36.1444 84.672C35.5617 84.1813 34.7107 83.936 33.5914 83.936H30.5554V89.548H33.5914C34.7107 89.548 35.5617 89.3027 36.1444 88.812C36.7271 88.3213 37.0184 87.6313 37.0184 86.742ZM55.6105 90.859C55.6105 90.905 55.5875 91.227 55.5415 91.825H46.1805C46.3492 92.5917 46.7478 93.1973 47.3765 93.642C48.0052 94.0867 48.7872 94.309 49.7225 94.309C50.3665 94.309 50.9338 94.217 51.4245 94.033C51.9305 93.8337 52.3982 93.527 52.8275 93.113L54.7365 95.183C53.5712 96.517 51.8692 97.184 49.6305 97.184C48.2352 97.184 47.0008 96.9157 45.9275 96.379C44.8542 95.827 44.0262 95.068 43.4435 94.102C42.8608 93.136 42.5695 92.0397 42.5695 90.813C42.5695 89.6017 42.8532 88.513 43.4205 87.547C44.0032 86.5657 44.7928 85.8067 45.7895 85.27C46.8015 84.718 47.9285 84.442 49.1705 84.442C50.3818 84.442 51.4782 84.7027 52.4595 85.224C53.4408 85.7453 54.2075 86.4967 54.7595 87.478C55.3268 88.444 55.6105 89.571 55.6105 90.859ZM49.1935 87.156C48.3808 87.156 47.6985 87.386 47.1465 87.846C46.5945 88.306 46.2572 88.9347 46.1345 89.732H52.2295C52.1068 88.95 51.7695 88.329 51.2175 87.869C50.6655 87.3937 49.9908 87.156 49.1935 87.156ZM70.7643 84.626V94.93C70.7643 97.1993 70.1739 98.886 68.9933 99.99C67.8126 101.094 66.0876 101.646 63.8183 101.646C62.6223 101.646 61.4876 101.5 60.4143 101.209C59.3409 100.918 58.4516 100.496 57.7463 99.944L59.1723 97.368C59.6936 97.7973 60.3529 98.1347 61.1503 98.38C61.9476 98.6407 62.7449 98.771 63.5423 98.771C64.7843 98.771 65.6966 98.4873 66.2793 97.92C66.8773 97.368 67.1763 96.5247 67.1763 95.39V94.861C66.2409 95.8883 64.9376 96.402 63.2663 96.402C62.1316 96.402 61.0889 96.1567 60.1383 95.666C59.2029 95.16 58.4593 94.4547 57.9073 93.55C57.3553 92.6453 57.0793 91.6027 57.0793 90.422C57.0793 89.2413 57.3553 88.1987 57.9073 87.294C58.4593 86.3893 59.2029 85.6917 60.1383 85.201C61.0889 84.695 62.1316 84.442 63.2663 84.442C65.0603 84.442 66.4249 85.0323 67.3603 86.213V84.626H70.7643ZM63.9793 93.458C64.9299 93.458 65.7043 93.182 66.3023 92.63C66.9156 92.0627 67.2223 91.3267 67.2223 90.422C67.2223 89.5173 66.9156 88.789 66.3023 88.237C65.7043 87.6697 64.9299 87.386 63.9793 87.386C63.0286 87.386 62.2466 87.6697 61.6333 88.237C61.0199 88.789 60.7133 89.5173 60.7133 90.422C60.7133 91.3267 61.0199 92.0627 61.6333 92.63C62.2466 93.182 63.0286 93.458 63.9793 93.458ZM74.1038 84.626H77.6918V97H74.1038V84.626ZM75.8978 82.901C75.2384 82.901 74.7018 82.7093 74.2878 82.326C73.8738 81.9427 73.6668 81.4673 73.6668 80.9C73.6668 80.3327 73.8738 79.8573 74.2878 79.474C74.7018 79.0907 75.2384 78.899 75.8978 78.899C76.5571 78.899 77.0938 79.083 77.5078 79.451C77.9218 79.819 78.1288 80.279 78.1288 80.831C78.1288 81.429 77.9218 81.9273 77.5078 82.326C77.0938 82.7093 76.5571 82.901 75.8978 82.901ZM85.1847 97.184C84.1574 97.184 83.1531 97.0613 82.1717 96.816C81.1904 96.5553 80.4084 96.2333 79.8257 95.85L81.0217 93.274C81.5737 93.6267 82.2407 93.918 83.0227 94.148C83.8047 94.3627 84.5714 94.47 85.3227 94.47C86.8407 94.47 87.5997 94.0943 87.5997 93.343C87.5997 92.9903 87.3927 92.7373 86.9787 92.584C86.5647 92.4307 85.9284 92.3003 85.0697 92.193C84.0577 92.0397 83.2221 91.8633 82.5627 91.664C81.9034 91.4647 81.3284 91.112 80.8377 90.606C80.3624 90.1 80.1247 89.3793 80.1247 88.444C80.1247 87.662 80.3471 86.972 80.7917 86.374C81.2517 85.7607 81.9111 85.2853 82.7697 84.948C83.6437 84.6107 84.6711 84.442 85.8517 84.442C86.7257 84.442 87.5921 84.5417 88.4507 84.741C89.3247 84.925 90.0454 85.1857 90.6127 85.523L89.4167 88.076C88.3281 87.4627 87.1397 87.156 85.8517 87.156C85.0851 87.156 84.5101 87.2633 84.1267 87.478C83.7434 87.6927 83.5517 87.9687 83.5517 88.306C83.5517 88.6893 83.7587 88.9577 84.1727 89.111C84.5867 89.2643 85.2461 89.41 86.1507 89.548C87.1627 89.7167 87.9907 89.9007 88.6347 90.1C89.2787 90.284 89.8384 90.629 90.3137 91.135C90.7891 91.641 91.0267 92.3463 91.0267 93.251C91.0267 94.0177 90.7967 94.7 90.3367 95.298C89.8767 95.896 89.2021 96.3637 88.3127 96.701C87.4387 97.023 86.3961 97.184 85.1847 97.184ZM101.221 96.402C100.869 96.6627 100.432 96.862 99.9105 97C99.4045 97.1227 98.8678 97.184 98.3005 97.184C96.8285 97.184 95.6861 96.8083 94.8735 96.057C94.0761 95.3057 93.6775 94.2017 93.6775 92.745V87.662H91.7685V84.902H93.6775V81.889H97.2655V84.902H100.347V87.662H97.2655V92.699C97.2655 93.2203 97.3958 93.6267 97.6565 93.918C97.9325 94.194 98.3158 94.332 98.8065 94.332C99.3738 94.332 99.8568 94.1787 100.255 93.872L101.221 96.402ZM106.663 86.259C107.092 85.661 107.667 85.2087 108.388 84.902C109.124 84.5953 109.967 84.442 110.918 84.442V87.754C110.519 87.7233 110.251 87.708 110.113 87.708C109.085 87.708 108.28 87.9993 107.698 88.582C107.115 89.1493 106.824 90.008 106.824 91.158V97H103.236V84.626H106.663V86.259ZM118.827 97.184C117.523 97.184 116.35 96.9157 115.308 96.379C114.28 95.827 113.475 95.068 112.893 94.102C112.31 93.136 112.019 92.0397 112.019 90.813C112.019 89.5863 112.31 88.49 112.893 87.524C113.475 86.558 114.28 85.8067 115.308 85.27C116.35 84.718 117.523 84.442 118.827 84.442C120.13 84.442 121.295 84.718 122.323 85.27C123.35 85.8067 124.155 86.558 124.738 87.524C125.32 88.49 125.612 89.5863 125.612 90.813C125.612 92.0397 125.32 93.136 124.738 94.102C124.155 95.068 123.35 95.827 122.323 96.379C121.295 96.9157 120.13 97.184 118.827 97.184ZM118.827 94.24C119.747 94.24 120.498 93.9333 121.081 93.32C121.679 92.6913 121.978 91.8557 121.978 90.813C121.978 89.7703 121.679 88.9423 121.081 88.329C120.498 87.7003 119.747 87.386 118.827 87.386C117.907 87.386 117.148 87.7003 116.55 88.329C115.952 88.9423 115.653 89.7703 115.653 90.813C115.653 91.8557 115.952 92.6913 116.55 93.32C117.148 93.9333 117.907 94.24 118.827 94.24ZM147.128 79.934V97H143.701V95.574C142.811 96.6473 141.523 97.184 139.837 97.184C138.671 97.184 137.613 96.9233 136.663 96.402C135.727 95.8807 134.991 95.137 134.455 94.171C133.918 93.205 133.65 92.0857 133.65 90.813C133.65 89.5403 133.918 88.421 134.455 87.455C134.991 86.489 135.727 85.7453 136.663 85.224C137.613 84.7027 138.671 84.442 139.837 84.442C141.416 84.442 142.65 84.9403 143.54 85.937V79.934H147.128ZM140.458 94.24C141.362 94.24 142.114 93.9333 142.712 93.32C143.31 92.6913 143.609 91.8557 143.609 90.813C143.609 89.7703 143.31 88.9423 142.712 88.329C142.114 87.7003 141.362 87.386 140.458 87.386C139.538 87.386 138.779 87.7003 138.181 88.329C137.583 88.9423 137.284 89.7703 137.284 90.813C137.284 91.8557 137.583 92.6913 138.181 93.32C138.779 93.9333 139.538 94.24 140.458 94.24ZM162.569 90.859C162.569 90.905 162.546 91.227 162.5 91.825H153.139C153.308 92.5917 153.707 93.1973 154.335 93.642C154.964 94.0867 155.746 94.309 156.681 94.309C157.325 94.309 157.893 94.217 158.383 94.033C158.889 93.8337 159.357 93.527 159.786 93.113L161.695 95.183C160.53 96.517 158.828 97.184 156.589 97.184C155.194 97.184 153.96 96.9157 152.886 96.379C151.813 95.827 150.985 95.068 150.402 94.102C149.82 93.136 149.528 92.0397 149.528 90.813C149.528 89.6017 149.812 88.513 150.379 87.547C150.962 86.5657 151.752 85.8067 152.748 85.27C153.76 84.718 154.887 84.442 156.129 84.442C157.341 84.442 158.437 84.7027 159.418 85.224C160.4 85.7453 161.166 86.4967 161.718 87.478C162.286 88.444 162.569 89.571 162.569 90.859ZM156.152 87.156C155.34 87.156 154.657 87.386 154.105 87.846C153.553 88.306 153.216 88.9347 153.093 89.732H159.188C159.066 88.95 158.728 88.329 158.176 87.869C157.624 87.3937 156.95 87.156 156.152 87.156ZM177.452 97.184C176.133 97.184 174.945 96.9157 173.887 96.379C172.844 95.827 172.024 95.068 171.426 94.102C170.843 93.136 170.552 92.0397 170.552 90.813C170.552 89.5863 170.843 88.49 171.426 87.524C172.024 86.558 172.844 85.8067 173.887 85.27C174.945 84.718 176.133 84.442 177.452 84.442C178.755 84.442 179.89 84.718 180.856 85.27C181.837 85.8067 182.55 86.581 182.995 87.593L180.212 89.088C179.568 87.9533 178.64 87.386 177.429 87.386C176.494 87.386 175.719 87.6927 175.106 88.306C174.493 88.9193 174.186 89.755 174.186 90.813C174.186 91.871 174.493 92.7067 175.106 93.32C175.719 93.9333 176.494 94.24 177.429 94.24C178.656 94.24 179.583 93.6727 180.212 92.538L182.995 94.056C182.55 95.0373 181.837 95.804 180.856 96.356C179.89 96.908 178.755 97.184 177.452 97.184ZM190.052 84.442C191.968 84.442 193.44 84.902 194.468 85.822C195.495 86.7267 196.009 88.099 196.009 89.939V97H192.651V95.459C191.976 96.609 190.719 97.184 188.879 97.184C187.928 97.184 187.1 97.023 186.395 96.701C185.705 96.379 185.176 95.9343 184.808 95.367C184.44 94.7997 184.256 94.1557 184.256 93.435C184.256 92.285 184.685 91.3803 185.544 90.721C186.418 90.0617 187.759 89.732 189.569 89.732H192.421C192.421 88.95 192.183 88.352 191.708 87.938C191.232 87.5087 190.519 87.294 189.569 87.294C188.909 87.294 188.258 87.4013 187.614 87.616C186.985 87.8153 186.448 88.0913 186.004 88.444L184.716 85.937C185.39 85.4617 186.195 85.0937 187.131 84.833C188.081 84.5723 189.055 84.442 190.052 84.442ZM189.776 94.769C190.389 94.769 190.933 94.631 191.409 94.355C191.884 94.0637 192.221 93.642 192.421 93.09V91.825H189.96C188.488 91.825 187.752 92.308 187.752 93.274C187.752 93.734 187.928 94.102 188.281 94.378C188.649 94.6387 189.147 94.769 189.776 94.769ZM206.777 84.442C208.31 84.442 209.545 84.902 210.48 85.822C211.431 86.742 211.906 88.1067 211.906 89.916V97H208.318V90.468C208.318 89.4867 208.103 88.7583 207.674 88.283C207.245 87.7923 206.624 87.547 205.811 87.547C204.906 87.547 204.186 87.8307 203.649 88.398C203.112 88.95 202.844 89.778 202.844 90.882V97H199.256V84.626H202.683V86.075C203.158 85.5537 203.749 85.155 204.454 84.879C205.159 84.5877 205.934 84.442 206.777 84.442ZM220.149 84.442C222.066 84.442 223.538 84.902 224.565 85.822C225.593 86.7267 226.106 88.099 226.106 89.939V97H222.748V95.459C222.074 96.609 220.816 97.184 218.976 97.184C218.026 97.184 217.198 97.023 216.492 96.701C215.802 96.379 215.273 95.9343 214.905 95.367C214.537 94.7997 214.353 94.1557 214.353 93.435C214.353 92.285 214.783 91.3803 215.641 90.721C216.515 90.0617 217.857 89.732 219.666 89.732H222.518C222.518 88.95 222.281 88.352 221.805 87.938C221.33 87.5087 220.617 87.294 219.666 87.294C219.007 87.294 218.355 87.4013 217.711 87.616C217.083 87.8153 216.546 88.0913 216.101 88.444L214.813 85.937C215.488 85.4617 216.293 85.0937 217.228 84.833C218.179 84.5723 219.153 84.442 220.149 84.442ZM219.873 94.769C220.487 94.769 221.031 94.631 221.506 94.355C221.982 94.0637 222.319 93.642 222.518 93.09V91.825H220.057C218.585 91.825 217.849 92.308 217.849 93.274C217.849 93.734 218.026 94.102 218.378 94.378C218.746 94.6387 219.245 94.769 219.873 94.769ZM233.517 97.184C232.489 97.184 231.485 97.0613 230.504 96.816C229.522 96.5553 228.74 96.2333 228.158 95.85L229.354 93.274C229.906 93.6267 230.573 93.918 231.355 94.148C232.137 94.3627 232.903 94.47 233.655 94.47C235.173 94.47 235.932 94.0943 235.932 93.343C235.932 92.9903 235.725 92.7373 235.311 92.584C234.897 92.4307 234.26 92.3003 233.402 92.193C232.39 92.0397 231.554 91.8633 230.895 91.664C230.235 91.4647 229.66 91.112 229.17 90.606C228.694 90.1 228.457 89.3793 228.457 88.444C228.457 87.662 228.679 86.972 229.124 86.374C229.584 85.7607 230.243 85.2853 231.102 84.948C231.976 84.6107 233.003 84.442 234.184 84.442C235.058 84.442 235.924 84.5417 236.783 84.741C237.657 84.925 238.377 85.1857 238.945 85.523L237.749 88.076C236.66 87.4627 235.472 87.156 234.184 87.156C233.417 87.156 232.842 87.2633 232.459 87.478C232.075 87.6927 231.884 87.9687 231.884 88.306C231.884 88.6893 232.091 88.9577 232.505 89.111C232.919 89.2643 233.578 89.41 234.483 89.548C235.495 89.7167 236.323 89.9007 236.967 90.1C237.611 90.284 238.17 90.629 238.646 91.135C239.121 91.641 239.359 92.3463 239.359 93.251C239.359 94.0177 239.129 94.7 238.669 95.298C238.209 95.896 237.534 96.3637 236.645 96.701C235.771 97.023 234.728 97.184 233.517 97.184ZM249.554 96.402C249.201 96.6627 248.764 96.862 248.243 97C247.737 97.1227 247.2 97.184 246.633 97.184C245.161 97.184 244.018 96.8083 243.206 96.057C242.408 95.3057 242.01 94.2017 242.01 92.745V87.662H240.101V84.902H242.01V81.889H245.598V84.902H248.68V87.662H245.598V92.699C245.598 93.2203 245.728 93.6267 245.989 93.918C246.265 94.194 246.648 94.332 247.139 94.332C247.706 94.332 248.189 94.1787 248.588 93.872L249.554 96.402ZM251.568 84.626H255.156V97H251.568V84.626ZM253.362 82.901C252.702 82.901 252.166 82.7093 251.752 82.326C251.338 81.9427 251.131 81.4673 251.131 80.9C251.131 80.3327 251.338 79.8573 251.752 79.474C252.166 79.0907 252.702 78.899 253.362 78.899C254.021 78.899 254.558 79.083 254.972 79.451C255.386 79.819 255.593 80.279 255.593 80.831C255.593 81.429 255.386 81.9273 254.972 82.326C254.558 82.7093 254.021 82.901 253.362 82.901ZM258.486 79.934H262.074V97H258.486V79.934ZM265.404 79.934H268.992V97H265.404V79.934ZM277.313 84.442C279.229 84.442 280.701 84.902 281.729 85.822C282.756 86.7267 283.27 88.099 283.27 89.939V97H279.912V95.459C279.237 96.609 277.98 97.184 276.14 97.184C275.189 97.184 274.361 97.023 273.656 96.701C272.966 96.379 272.437 95.9343 272.069 95.367C271.701 94.7997 271.517 94.1557 271.517 93.435C271.517 92.285 271.946 91.3803 272.805 90.721C273.679 90.0617 275.02 89.732 276.83 89.732H279.682C279.682 88.95 279.444 88.352 278.969 87.938C278.493 87.5087 277.78 87.294 276.83 87.294C276.17 87.294 275.519 87.4013 274.875 87.616C274.246 87.8153 273.709 88.0913 273.265 88.444L271.977 85.937C272.651 85.4617 273.456 85.0937 274.392 84.833C275.342 84.5723 276.316 84.442 277.313 84.442ZM277.037 94.769C277.65 94.769 278.194 94.631 278.67 94.355C279.145 94.0637 279.482 93.642 279.682 93.09V91.825H277.221C275.749 91.825 275.013 92.308 275.013 93.274C275.013 93.734 275.189 94.102 275.542 94.378C275.91 94.6387 276.408 94.769 277.037 94.769ZM290.68 97.184C289.653 97.184 288.648 97.0613 287.667 96.816C286.686 96.5553 285.904 96.2333 285.321 95.85L286.517 93.274C287.069 93.6267 287.736 93.918 288.518 94.148C289.3 94.3627 290.067 94.47 290.818 94.47C292.336 94.47 293.095 94.0943 293.095 93.343C293.095 92.9903 292.888 92.7373 292.474 92.584C292.06 92.4307 291.424 92.3003 290.565 92.193C289.553 92.0397 288.717 91.8633 288.058 91.664C287.399 91.4647 286.824 91.112 286.333 90.606C285.858 90.1 285.62 89.3793 285.62 88.444C285.62 87.662 285.842 86.972 286.287 86.374C286.747 85.7607 287.406 85.2853 288.265 84.948C289.139 84.6107 290.166 84.442 291.347 84.442C292.221 84.442 293.087 84.5417 293.946 84.741C294.82 84.925 295.541 85.1857 296.108 85.523L294.912 88.076C293.823 87.4627 292.635 87.156 291.347 87.156C290.58 87.156 290.005 87.2633 289.622 87.478C289.239 87.6927 289.047 87.9687 289.047 88.306C289.047 88.6893 289.254 88.9577 289.668 89.111C290.082 89.2643 290.741 89.41 291.646 89.548C292.658 89.7167 293.486 89.9007 294.13 90.1C294.774 90.284 295.334 90.629 295.809 91.135C296.284 91.641 296.522 92.3463 296.522 93.251C296.522 94.0177 296.292 94.7 295.832 95.298C295.372 95.896 294.697 96.3637 293.808 96.701C292.934 97.023 291.891 97.184 290.68 97.184Z" fill="white"/>
</svg>
